<svg width="23" height="35" viewBox="0 0 23 35" fill="none" xmlns="http://www.w3.org/2000/svg">
<path d="M19.6875 0H3.1381C1.40779 0 0 1.40751 0 3.1381V13.266C0 14.9927 1.40166 16.398 3.12696 16.4041V21L9.73181 16.4041H19.6875C21.4178 16.4041 22.8256 14.9963 22.8256 13.266V3.1381C22.8256 1.40751 21.4178 0 19.6875 0V0ZM21.4882 13.266C21.4882 14.2588 20.6804 15.0667 19.6875 15.0667H9.31219L4.46439 18.4401V15.0667H3.1381C2.14519 15.0667 1.33744 14.2588 1.33744 13.266V3.1381C1.33744 2.14506 2.14519 1.33744 3.1381 1.33744H19.6875C20.6804 1.33744 21.4882 2.14506 21.4882 3.1381V13.266Z" fill="black"/>
<path d="M6.10889 4.72656H16.7162V6.064H6.10889V4.72656Z" fill="black"/>
<path d="M6.10889 7.5791H16.7162V8.91654H6.10889V7.5791Z" fill="black"/>
<path d="M6.10889 10.4326H16.7162V11.7701H6.10889V10.4326Z" fill="black"/>
<path d="M6.0467 27.699H7.5677V27.096H6.0557V25.89H5.3447V27.096H3.8237V27.699H5.3447V28.068C5.3447 29.391 4.7147 30.795 3.6257 31.434L4.0667 31.992C4.8587 31.524 5.4257 30.624 5.7047 29.598C6.0017 30.561 6.5687 31.371 7.3607 31.812L7.7837 31.263C6.7037 30.669 6.0467 29.355 6.0467 28.068V27.699ZM9.8717 25.593V28.851H8.8097V25.773H8.1167V33.27H8.8097V29.463H9.8717V33.666H10.5827V25.593H9.8717ZM18.601 25.602H17.863V30.597H18.601V25.602ZM16.936 29.202C15.811 29.391 14.857 29.427 13.174 29.427V28.374H16.063V27.789H13.174V26.781H16.288V26.187H12.436V30.021H13.093C14.857 30.021 15.838 29.985 17.017 29.787L16.936 29.202ZM15.919 33.081C14.695 33.081 13.948 32.748 13.948 32.19C13.948 31.614 14.695 31.29 15.919 31.29C17.152 31.29 17.899 31.614 17.899 32.19C17.899 32.748 17.152 33.081 15.919 33.081ZM15.919 30.714C14.245 30.714 13.219 31.245 13.219 32.19C13.219 33.126 14.245 33.657 15.919 33.657C17.602 33.657 18.628 33.126 18.628 32.19C18.628 31.245 17.602 30.714 15.919 30.714Z" fill="black"/>
</svg>
