<svg width="20" height="36" viewBox="0 0 20 36" fill="none" xmlns="http://www.w3.org/2000/svg">
<path d="M19.1044 8.60344L9.93774 0.200631C9.63907 -0.0726076 9.17973 -0.0659474 8.88943 0.21567L0.231989 8.61844C0.0837893 8.7623 0 8.96017 0 9.16663V21.2361C0 21.658 0.341946 22 0.7639 22H7.12964C7.55156 22 7.89354 21.658 7.89354 21.2361V15.6343H11.4584V21.2361C11.4584 21.658 11.8003 22 12.2223 22H18.588C19.0099 22 19.3519 21.6583 19.3519 21.2361V9.16668C19.3519 8.95252 19.2623 8.74833 19.1044 8.60344ZM17.8241 20.4722H12.9862V14.8704C12.9862 14.4485 12.6442 14.1065 12.2223 14.1065H7.12969C6.70778 14.1065 6.36579 14.4485 6.36579 14.8704V20.4722H1.5278V9.4898L9.43638 1.81398L17.8242 9.50278V20.4722H17.8241Z" fill="black"/>
<path d="M13.7134 27.259H10.8604V26.485H10.1224V27.259H7.21535V27.835H13.7134V27.259ZM8.45735 32.821H12.5254V34H8.45735V32.821ZM7.73735 34.558H13.2454V32.263H7.73735V34.558ZM8.65535 29.293C8.65535 28.897 9.31235 28.672 10.4914 28.672C11.6524 28.672 12.3094 28.897 12.3094 29.293C12.3094 29.698 11.6524 29.923 10.4914 29.923C9.31235 29.923 8.65535 29.698 8.65535 29.293ZM10.8604 31.048V30.436C12.2824 30.382 13.0924 29.986 13.0924 29.293C13.0924 28.546 12.1474 28.15 10.4914 28.15C8.81735 28.15 7.88135 28.546 7.88135 29.293C7.88135 29.986 8.68235 30.382 10.1224 30.436V31.048H6.83735V31.633H14.1274V31.048H10.8604Z" fill="black"/>
</svg>
