<svg width="28" height="36" viewBox="0 0 28 36" fill="none" xmlns="http://www.w3.org/2000/svg">
<path d="M2.07584 27.574H1.33784V32.569H1.85084C2.72384 32.569 3.65084 32.524 4.73984 32.317L4.66784 31.678C3.70484 31.867 2.84984 31.921 2.07584 31.93V27.574ZM7.07984 26.593V29.878H5.93684V26.773H5.24384V34.252H5.93684V30.49H7.07984V34.657H7.79084V26.593H7.07984ZM18.4016 29.671C16.9346 29.455 15.4946 28.456 15.4946 27.331V26.881H14.7206V27.331C14.7206 28.483 13.2986 29.455 11.8316 29.671L12.1286 30.265C13.3886 30.049 14.6036 29.356 15.1076 28.375C15.6296 29.347 16.8446 30.049 18.0956 30.265L18.4016 29.671ZM18.7526 31.138H11.4626V31.75H14.7206V34.675H15.4586V31.75H18.7616L18.7526 31.138ZM25.6459 33.964H21.9469V32.92H25.6459V33.964ZM25.6459 32.344H21.9469V31.318H21.2179V34.558H26.3839V31.318H25.6459V32.344ZM21.9379 30.094C21.1369 30.094 20.5609 29.572 20.5609 28.834C20.5609 28.096 21.1369 27.583 21.9379 27.583C22.7389 27.583 23.3149 28.096 23.3149 28.834C23.3149 29.572 22.7389 30.094 21.9379 30.094ZM25.6369 26.602V28.519H23.9899C23.8369 27.583 23.0269 26.971 21.9379 26.971C20.7319 26.971 19.8589 27.727 19.8589 28.834C19.8589 29.95 20.7319 30.706 21.9379 30.706C23.0449 30.706 23.8549 30.076 23.9989 29.122H25.6369V30.931H26.3839V26.602H25.6369Z" fill="black"/>
<path d="M21.6429 2.35714H19.2857V0.785729C19.2857 0.351776 18.9339 0 18.5 0C18.066 0 17.7143 0.351776 17.7143 0.785729V2.35714H8.28569V0.785729C8.28569 0.351776 7.93392 0 7.50001 0C7.0661 0 6.71428 0.351776 6.71428 0.785729V2.35714H4.35714C3.05533 2.35714 2 3.41247 2 4.71428V19.6429C2 20.9447 3.05533 22 4.35714 22H21.6429C22.9447 22 24 20.9447 24 19.6429V4.71428C24 3.41247 22.9447 2.35714 21.6429 2.35714ZM22.4285 19.6429C22.4285 20.0768 22.0768 20.4286 21.6428 20.4286H4.35714C3.92319 20.4286 3.57141 20.0768 3.57141 19.6429V9.42856H22.4285V19.6429ZM22.4285 7.85715H3.57141V4.71428C3.57141 4.28033 3.92319 3.92855 4.35714 3.92855H6.71428V5.49997C6.71428 5.93392 7.06606 6.28569 7.50001 6.28569C7.93396 6.28569 8.28574 5.93392 8.28574 5.49997V3.92855H17.7143V5.49997C17.7143 5.93392 18.0661 6.28569 18.5 6.28569C18.934 6.28569 19.2858 5.93392 19.2858 5.49997V3.92855H21.6429C22.0769 3.92855 22.4286 4.28033 22.4286 4.71428V7.85715H22.4285Z" fill="black"/>
<path d="M18.2506 11.2303C17.9461 10.9362 17.4634 10.9362 17.1589 11.2303L11.4287 16.9605L8.84132 14.3731C8.52918 14.0717 8.03179 14.0803 7.73033 14.3924C7.43624 14.6969 7.43624 15.1796 7.73033 15.4841L10.8732 18.627C11.18 18.9337 11.6774 18.9337 11.9842 18.627L18.2699 12.3413C18.5713 12.0292 18.5627 11.5318 18.2506 11.2303Z" fill="black"/>
</svg>
