<svg width="44" height="36" viewBox="0 0 44 36" fill="none" xmlns="http://www.w3.org/2000/svg">
<path d="M29.7782 14.2218C28.5801 13.0237 27.1541 12.1368 25.5982 11.5999C27.2646 10.4522 28.3594 8.53136 28.3594 6.35938C28.3594 2.85282 25.5066 0 22 0C18.4934 0 15.6406 2.85282 15.6406 6.35938C15.6406 8.53136 16.7354 10.4522 18.4019 11.5999C16.846 12.1368 15.4199 13.0237 14.2218 14.2218C12.1442 16.2995 11 19.0618 11 22H12.7188C12.7188 16.8823 16.8823 12.7188 22 12.7188C27.1177 12.7188 31.2812 16.8823 31.2812 22H33C33 19.0618 31.8558 16.2995 29.7782 14.2218ZM22 11C19.4412 11 17.3594 8.91825 17.3594 6.35938C17.3594 3.8005 19.4412 1.71875 22 1.71875C24.5588 1.71875 26.6406 3.8005 26.6406 6.35938C26.6406 8.91825 24.5588 11 22 11Z" fill="black"/>
<path d="M1.70655 27.997H3.96555V32.02H1.70655V27.997ZM0.986547 32.614H4.68555V27.403H0.986547V32.614ZM8.20455 29.815H6.87255V26.602H6.13455V34.666H6.87255V30.436H8.20455V29.815ZM14.8098 26.593V34.684H15.5478V26.593H14.8098ZM11.2908 27.214C10.0938 27.214 9.23884 28.312 9.23884 30.031C9.23884 31.75 10.0938 32.848 11.2908 32.848C12.4878 32.848 13.3428 31.75 13.3428 30.031C13.3428 28.312 12.4878 27.214 11.2908 27.214ZM11.2908 27.88C12.0738 27.88 12.6318 28.726 12.6318 30.031C12.6318 31.345 12.0738 32.191 11.2908 32.191C10.4988 32.191 9.94084 31.345 9.94084 30.031C9.94084 28.726 10.4988 27.88 11.2908 27.88ZM20.8666 28.213H21.8746V32.002C21.5326 32.02 21.1996 32.029 20.8666 32.038V28.213ZM22.5496 28.213H23.2156V27.619H19.5256V28.213H20.1916V32.056C19.8856 32.065 19.6156 32.065 19.3726 32.065L19.4446 32.677C20.4976 32.677 22.1896 32.641 23.4406 32.407L23.3956 31.867C23.1346 31.903 22.8376 31.93 22.5496 31.957V28.213ZM24.0796 29.671H22.9726V30.319H24.0796V34.243H24.7726V26.791H24.0796V29.671ZM25.6366 26.602V34.666H26.3476V26.602H25.6366ZM33.6009 26.593V34.684H34.3389V26.593H33.6009ZM30.0819 27.214C28.8849 27.214 28.0299 28.312 28.0299 30.031C28.0299 31.75 28.8849 32.848 30.0819 32.848C31.2789 32.848 32.1339 31.75 32.1339 30.031C32.1339 28.312 31.2789 27.214 30.0819 27.214ZM30.0819 27.88C30.8649 27.88 31.4229 28.726 31.4229 30.031C31.4229 31.345 30.8649 32.191 30.0819 32.191C29.2899 32.191 28.7319 31.345 28.7319 30.031C28.7319 28.726 29.2899 27.88 30.0819 27.88ZM38.8922 28.033H40.7912V27.421H36.2822V28.033H38.1542V29.059C38.1542 30.454 37.1732 31.975 36.0122 32.524L36.4442 33.118C37.3622 32.65 38.1542 31.633 38.5232 30.454C38.9102 31.561 39.7022 32.488 40.6382 32.92L41.0522 32.326C39.8642 31.822 38.8922 30.427 38.8922 29.059V28.033ZM41.8802 26.602V34.666H42.6182V26.602H41.8802Z" fill="black"/>
</svg>
