<svg width="12" height="12" viewBox="0 0 12 12" fill="none" xmlns="http://www.w3.org/2000/svg">
<path d="M11.855 0.144641C11.7875 0.0774772 11.7023 0.0309758 11.6093 0.0106039C11.5163 -0.00976803 11.4194 -0.00316361 11.33 0.0296407L0.33 4.02964C0.235134 4.06562 0.15346 4.12962 0.0958259 4.21312C0.0381915 4.29662 0.00732422 4.39568 0.00732422 4.49714C0.00732422 4.5986 0.0381915 4.69766 0.0958259 4.78116C0.15346 4.86467 0.235134 4.92866 0.33 4.96464L5.13 6.88464L7.05 11.6846C7.08607 11.7753 7.14791 11.8535 7.22787 11.9095C7.30783 11.9654 7.40243 11.9968 7.5 11.9996C7.60104 11.9976 7.69909 11.9649 7.7812 11.906C7.86332 11.8471 7.92566 11.7647 7.96 11.6696L11.96 0.669641C11.9941 0.581179 12.0023 0.484856 11.9837 0.391902C11.9651 0.298949 11.9205 0.213196 11.855 0.144641V0.144641ZM7.5 10.0996L6.105 6.59964L8.5 4.20464L7.795 3.49964L5.38 5.91464L1.9 4.49964L10.665 1.33464L7.5 10.0996Z" fill="black"/>
</svg>
